<svg xmlns="http://www.w3.org/2000/svg" width="1200" height="520" viewBox="0 0 1200 520" fill="none">
  <rect width="1200" height="520" fill="#020617"/>
  <text x="60" y="72" fill="#E2E8F0" font-size="34" font-family="Arial">Buchungsfluss (manuell + automatisch)</text>

  <rect x="70" y="130" width="250" height="120" rx="14" fill="#0EA5E9"/>
  <text x="95" y="182" fill="white" font-size="22" font-family="Arial">Slicer/Upload</text>
  <text x="95" y="212" fill="#E0F2FE" font-size="15" font-family="Arial">3MF / GCode</text>

  <rect x="380" y="130" width="260" height="120" rx="14" fill="#6366F1"/>
  <text x="405" y="182" fill="white" font-size="22" font-family="Arial">Parser + Matching</text>
  <text x="405" y="212" fill="#E0E7FF" font-size="15" font-family="Arial">Material/Farbe/Slot</text>

  <rect x="700" y="130" width="220" height="120" rx="14" fill="#22C55E"/>
  <text x="725" y="182" fill="white" font-size="22" font-family="Arial">Abbuchung</text>
  <text x="725" y="212" fill="#DCFCE7" font-size="15" font-family="Arial">spools.remaining_g</text>

  <rect x="980" y="130" width="150" height="120" rx="14" fill="#F59E0B"/>
  <text x="1005" y="182" fill="white" font-size="22" font-family="Arial">Audit</text>
  <text x="1005" y="212" fill="#FEF3C7" font-size="15" font-family="Arial">usage_history</text>

  <path d="M320 190H380" stroke="#7DD3FC" stroke-width="6" stroke-linecap="round"/>
  <path d="M640 190H700" stroke="#A5B4FC" stroke-width="6" stroke-linecap="round"/>
  <path d="M920 190H980" stroke="#86EFAC" stroke-width="6" stroke-linecap="round"/>

  <rect x="70" y="300" width="1060" height="150" rx="18" fill="#111827" stroke="#334155"/>
  <text x="100" y="352" fill="#E2E8F0" font-size="22" font-family="Arial">Idempotenz & Sicherheit</text>
  <text x="100" y="385" fill="#CBD5E1" font-size="17" font-family="Arial">Mit job_id wird ein Upload nur einmal angewendet. Bei Slotdaten wird streng Slot-gebunden zugeordnet.</text>
  <text x="100" y="414" fill="#94A3B8" font-size="15" font-family="Arial">Empfehlung: Immer externen HTTPS-Endpoint nutzen.</text>
</svg>
